P3
#testrEC.ppm
4 4
15
 0  15  0 0  15  0 0  15  0 0  15  0 
 0  15  0 15  0  15 0  0  15 0  15  0
 0  15  0 15  0  15 0  0  15 0  15  0
0  15  0 0  15  0 0  15  0 0  15  0
