P3
# CREATOR: XV Version 3.10a  Rev: 12/29/94 (PNG patch 1.2)
6 6
255
255  0  0  255  0  0  255  0  0  255  0  0  255  0  0  255  0  0  
255  0  0  0  255  0  0  255  0  0  255  0  0  255  0  255  0  0  
255  0  0  0  255  0  0  255  0  0  255  0  0  255  0  255  0  0  
255  0  0  0  255  0  0  255  0  0  255  0  0  255  0  255  0  0  
255  0  0  0  255  0  0  255  0  0  255  0  0  255  0  255  0  0  
255  0  0  255  0  0  255  0  0  255  0  0  255  0  0  255  0  0  
